Genre:Action | Adventure
Language:English  http://www.imdb.com/title/tt1705773/
Source:DVD


Format : AVI
Format/Info : Audio Video Interleave
File size : 819 MiB
Duration : 1h 28mn
Overall bit rate : 1 293 Kbps

Video
Codec ID/Hint : XviD
Duration : 1h 28mn
Bit rate : 899 Kbps
Width : 720 pixels
Height : 384 pixels
Display aspect ratio : 1.875
Frame rate : 23.976 fps
Color space : YUV
Chroma subsampling : 4:2:0
Bit depth : 8 bits
Scan type : Progressive
Bits/(Pixel*Frame) : 0.136
Stream size : 569 MiB (69%)
Writing library : XviD 1.2.1 (UTC 2008-12-04)

Audio
ID : 1
Format : AC-3
Format/Info : Audio Coding 3
Mode extension : CM (complete main)
Codec ID : 2000
Duration : 1h 28mn
Bit rate mode : Constant
Bit rate : 384 Kbps
Channel(s) : 6 channels
Channel positions : Front: L C R, Side: L R, LFE
Sampling rate : 48.0 KHz
Bit depth : 16 bits
Stream size : 243 MiB (30%)
Alignment : Aligned on interleaves
Interleave, duration : 32 ms (0.77 video frame)

